<svg xmlns="http://www.w3.org/2000/svg" width="1400" height="1050" viewBox="0 0 1400 1050"><defs><linearGradient id="g" x1="0" y1="0" x2="0" y2="1"><stop stop-color="#CFC7B6"/><stop offset="1" stop-color="#9C9079"/></linearGradient></defs><rect width="1400" height="1050" fill="url(#g)"/><rect x="0" y="690" width="1400" height="360" fill="#7B715F"/><path d="M0 780c220-30 430 40 640 10 250-35 470-95 760-30v290H0z" fill="#6B6A50" opacity=".85"/><g stroke="#4B4C3B" stroke-width="7" opacity=".55"><path d="M180 790l145 70M720 760l190 90M1020 820l210 50"/><path d="M310 710c40 30 78 44 126 38M860 715c55 18 94 14 133-20"/></g><g fill="#5F6B47" opacity=".45"><ellipse cx="260" cy="665" rx="45" ry="75"/><ellipse cx="1120" cy="650" rx="40" ry="80"/></g><text x="88" y="132" fill="#14342B" font-family="Georgia,serif" font-size="58">Antes</text><text x="91" y="178" fill="#14342B" opacity=".75" font-family="Arial,sans-serif" font-size="24">Espacio con potencial desaprovechado</text></svg>