<svg xmlns="http://www.w3.org/2000/svg" width="1920" height="1080" viewBox="0 0 1920 1080"><defs><linearGradient id="g" x1="0" y1="0" x2="1" y2="1"><stop stop-color="#F6F2E9"/><stop offset=".55" stop-color="#DCCFAE"/><stop offset="1" stop-color="#1C4638"/></linearGradient></defs><rect width="1920" height="1080" fill="url(#g)"/><path d="M0 746c260-82 463-104 716-56 289 55 514 31 786-54 172-54 294-73 418-54v498H0z" fill="#14342B"/><path d="M0 845c275-72 490-78 735-25 292 63 513 48 767-42 154-55 296-79 418-46v348H0z" fill="#1C4638"/><g opacity=".85" fill="#7C8C5C"><ellipse cx="318" cy="704" rx="122" ry="210"/><ellipse cx="470" cy="662" rx="95" ry="180"/><ellipse cx="1510" cy="650" rx="130" ry="225"/><ellipse cx="1665" cy="696" rx="98" ry="178"/></g><g stroke="#DBC9A6" stroke-width="8" stroke-linecap="round" opacity=".55"><path d="M170 858c207-88 397-94 571-18"/><path d="M1094 820c209-92 395-104 590-34"/></g><text x="165" y="214" fill="#F6F2E9" font-family="Georgia,serif" font-size="62">Green Gibb</text><text x="168" y="274" fill="#DBC9A6" font-family="Arial,sans-serif" font-size="24" letter-spacing="6">PAISAJISMO PREMIUM · MTY</text></svg>