<svg xmlns="http://www.w3.org/2000/svg" width="1400" height="1050" viewBox="0 0 1400 1050"><defs><linearGradient id="g" x1="0" y1="0" x2="1" y2="1"><stop stop-color="#CFC7B6"/><stop offset=".55" stop-color="#9C9079"/><stop offset="1" stop-color="#14342B"/></linearGradient></defs><rect width="1400" height="1050" fill="url(#g)"/><g opacity=".5"><rect x="118" y="130" width="250" height="520" fill="#F6F2E9"/><rect x="405" y="220" width="330" height="430" fill="#EFE8D9"/><rect x="775" y="95" width="310" height="555" fill="#F6F2E9"/></g><g fill="#1C4638" opacity=".5"><rect x="160" y="178" width="55" height="55"/><rect x="242" y="178" width="55" height="55"/><rect x="160" y="268" width="55" height="55"/><rect x="242" y="268" width="55" height="55"/><rect x="830" y="150" width="62" height="64"/><rect x="930" y="150" width="62" height="64"/><rect x="830" y="260" width="62" height="64"/><rect x="930" y="260" width="62" height="64"/></g><path d="M0 700c230-78 420-82 626-22 247 72 460 35 774-88v460H0z" fill="#14342B"/><path d="M0 822c220-60 406-60 612-9 282 70 534 32 788-70v307H0z" fill="#0E261F"/><g fill="#7C8C5C"><ellipse cx="255" cy="690" rx="76" ry="142"/><ellipse cx="525" cy="698" rx="52" ry="100"/><ellipse cx="1130" cy="668" rx="82" ry="150"/></g><g stroke="#DBC9A6" stroke-width="8" stroke-linecap="round" opacity=".58"><path d="M130 810c330-75 596-70 806 15"/><path d="M826 770c142-48 278-52 404-13"/></g></svg>