<svg xmlns="http://www.w3.org/2000/svg" width="1600" height="900" viewBox="0 0 1600 900"><defs><linearGradient id="g" x1="0" y1="0" x2="1" y2="1"><stop stop-color="#14342B"/><stop offset=".65" stop-color="#1C4638"/><stop offset="1" stop-color="#C9B488"/></linearGradient></defs><rect width="1600" height="900" fill="url(#g)"/><g fill="#F6F2E9" opacity=".16"><rect x="130" y="150" width="320" height="230" rx="26"/><rect x="490" y="150" width="320" height="230" rx="26"/><rect x="850" y="150" width="320" height="230" rx="26"/><rect x="1210" y="150" width="260" height="230" rx="26"/></g><path d="M0 610c235-72 462-82 690-24 297 76 570 47 910-58v372H0z" fill="#0E261F"/><g fill="#7C8C5C"><ellipse cx="255" cy="560" rx="82" ry="155"/><ellipse cx="625" cy="530" rx="68" ry="130"/><ellipse cx="1005" cy="540" rx="86" ry="150"/><ellipse cx="1345" cy="552" rx="74" ry="140"/></g><text x="120" y="760" fill="#DBC9A6" font-family="Arial,sans-serif" font-size="28" letter-spacing="5">DISEÑO · EJECUCIÓN · MANTENIMIENTO</text></svg>