<svg xmlns="http://www.w3.org/2000/svg" width="1400" height="1050" viewBox="0 0 1400 1050"><defs><linearGradient id="g" x1="0" y1="0" x2="0" y2="1"><stop stop-color="#EFE8D9"/><stop offset=".55" stop-color="#C9B488"/><stop offset="1" stop-color="#14342B"/></linearGradient></defs><rect width="1400" height="1050" fill="url(#g)"/><path d="M0 340h1400v95H0z" fill="#1C4638" opacity=".18"/><g stroke="#14342B" stroke-width="10" opacity=".35"><path d="M160 360h960"/><path d="M250 360v230M460 360v230M670 360v230M880 360v230M1090 360v230"/></g><path d="M0 705c230-64 445-70 650-20 244 59 466 40 750-38v403H0z" fill="#1C4638"/><path d="M0 835c240-52 500-48 740 5 255 56 455 30 660-44v254H0z" fill="#0E261F"/><rect x="190" y="625" width="320" height="130" rx="26" fill="#F6F2E9" opacity=".38"/><rect x="850" y="580" width="290" height="170" rx="26" fill="#F6F2E9" opacity=".28"/><g fill="#7C8C5C"><ellipse cx="170" cy="636" rx="70" ry="145"/><ellipse cx="590" cy="634" rx="58" ry="110"/><ellipse cx="780" cy="615" rx="74" ry="135"/><ellipse cx="1190" cy="640" rx="78" ry="140"/></g><g fill="#D17E5D" opacity=".7"><circle cx="385" cy="610" r="8"/><circle cx="945" cy="555" r="7"/><circle cx="1045" cy="570" r="6"/></g></svg>